<svg version="1.0" xmlns="http://www.w3.org/2000/svg" width="800.000000" height="800.000000" viewBox="0 0 800.000000 800.000000" preserveAspectRatio="xMidYMid meet">
  <metadata>
    <rdf:RDF xmlns:rdf="http://www.w3.org/1999/02/22-rdf-syntax-ns#" xmlns:rdfs="http://www.w3.org/2000/01/rdf-schema#" xmlns:dc="http://purl.org/dc/elements/1.1/">
      <rdf:Description dc:format="image/svg+xml" dc:Label="1" dc:ContentProducer="001191330110MACRLGPT8B00000" dc:ProduceID="462055699" dc:ReservedCode1="5nO/IEz3zpVKhqjRthbuOEOjHNH2x/SoN08edoNTrHQ=" dc:ContentPropagator="001191330110MACRLGPT8B00000" dc:PropagateID="462055699" dc:ReservedCode2="5nO/IEz3zpVKhqjRthbuOEOjHNH2x/SoN08edoNTrHQ="/>
    </rdf:RDF>
  </metadata>
  <g transform="translate(183.041399,629.107333) scale(0.056466,-0.056466)" fill="#ffffff" fill-opacity="0.6" stroke="none">
    <path d="M3775 7771 c-56 -14 -106 -44 -130 -76 -29 -37 -31 -48 -130 -575 -42 -223 -110 -574 -152 -780 -104 -516 -99 -479 -85 -561 17 -101 15 -195 -8 -280 -25 -94 -25 -137 0 -234 25 -99 25 -162 -1 -261 -26 -103 -26 -141 1 -249 26 -103 24 -162 -10 -294 l-22 -84 27 -111 c31 -125 30 -168 -7 -313 l-21 -87 23 -91 c31 -115 31 -202 0 -326 l-23 -96 23 -94 c30 -118 30 -191 0 -306 l-23 -90 21 -91 c27 -113 28 -216 2 -313 -24 -92 -24 -116 0 -209 25 -96 25 -197 0 -291 -25 -94 -25 -118 1 -226 25 -104 22 -186 -12 -278 -11 -33 -25 -100 -29 -150 -4 -49 -22 -139 -40 -200 -28 -97 -32 -129 -37 -280 -5 -142 -3 -180 11 -228 38 -129 160 -207 384 -243 116 -18 503 -21 617 -4 206 30 312 86 362 188 27 56 28 61 27 222 -1 113 -7 186 -18 233 -9 38 -16 94 -16 125 0 39 -9 81 -30 133 -40 104 -46 166 -24 259 23 95 23 179 1 255 -22 78 -21 182 3 275 25 94 25 119 0 205 -27 95 -27 206 2 317 l22 87 -22 93 c-28 118 -28 198 0 316 l22 94 -22 86 c-28 110 -29 221 -2 322 25 94 25 119 0 205 -26 91 -26 206 0 305 25 94 25 119 0 205 -27 94 -26 203 2 317 l22 89 -22 87 c-29 112 -29 215 0 329 l21 87 -23 90 c-28 109 -30 201 -5 321 18 86 18 94 2 158 -20 77 -53 244 -131 652 -31 160 -75 394 -100 520 -24 127 -61 322 -81 435 -21 113 -44 229 -52 257 -17 65 -59 115 -115 138 -48 19 -159 28 -203 16z m138 -125 c18 -7 39 -22 48 -32 11 -13 35 -113 68 -294 28 -151 54 -287 57 -302 l6 -28 -236 0 -236 0 0 22 c0 30 100 558 111 586 21 53 113 77 182 48z m218 -859 c9 -43 20 -98 24 -123 l6 -44 -304 0 c-167 0 -306 2 -309 5 -4 5 34 199 46 230 5 13 39 15 263 13 l257 -3 17 -78z m66 -357 c41 -201 123 -623 123 -631 0 -6 -8 -8 -17 -5 -10 3 -162 31 -338 61 -462 80 -549 96 -552 98 -2 3 85 452 99 510 l9 37 331 -2 332 -3 13 -65z m-657 -625 c666 -112 792 -135 802 -144 4 -3 0 -33 -8 -66 -12 -43 -15 -94 -12 -183 l3 -122 -25 5 c-14 2 -223 39 -465 80 -241 42 -441 78 -444 80 -2 3 2 36 9 75 13 68 9 244 -6 283 -3 9 -5 17 -3 17 2 0 69 -11 149 -25z m155 -529 c446 -75 633 -109 645 -116 9 -6 7 -27 -5 -85 -13 -59 -16 -105 -13 -187 l6 -109 -27 5 c-14 3 -107 19 -206 35 -176 29 -452 76 -628 107 -88 16 -89 17 -82 42 28 111 30 235 6 319 -11 37 -8 41 22 36 12 -2 139 -23 282 -47z m475 -592 c91 -15 168 -31 173 -34 4 -4 0 -38 -9 -76 -12 -51 -15 -99 -12 -185 l5 -115 -91 17 c-50 9 -259 45 -463 80 -205 34 -377 65 -383 69 -6 4 -4 32 6 81 16 76 14 190 -5 256 -5 17 -7 33 -5 36 2 2 142 -20 312 -49 169 -29 381 -65 472 -80z m-433 -429 c324 -55 588 -102 609 -109 7 -3 5 -26 -7 -73 -20 -76 -25 -236 -9 -279 6 -15 9 -28 7 -30 -1 -2 -126 19 -277 45 -151 27 -363 63 -470 81 -107 18 -198 36 -201 39 -4 3 0 47 9 96 12 71 13 107 5 170 -6 44 -14 88 -18 98 -5 12 -3 17 8 17 8 0 163 -25 344 -55z m-51 -504 c397 -68 636 -111 656 -117 16 -5 16 -8 1 -47 -18 -46 -25 -273 -10 -314 7 -19 5 -23 -13 -23 -11 0 -175 27 -363 60 -188 33 -393 68 -455 79 -63 10 -116 22 -119 24 -3 3 3 47 13 97 15 78 16 105 6 174 -6 44 -14 89 -17 99 -4 9 -3 17 2 17 5 0 140 -22 299 -49z m-215 -481 c30 -5 149 -25 264 -45 322 -55 610 -107 613 -110 2 -2 -4 -31 -14 -66 -12 -49 -15 -92 -12 -179 l5 -116 -156 28 c-86 16 -297 53 -470 83 -173 30 -316 57 -319 60 -3 2 1 26 9 52 16 56 17 212 1 266 -12 43 -11 43 79 27z m217 -525 c333 -57 654 -115 663 -121 4 -2 0 -23 -9 -46 -19 -54 -28 -255 -14 -297 14 -39 14 -39 -173 -6 -77 14 -273 48 -435 75 -162 28 -306 53 -319 56 -21 4 -23 9 -17 42 21 118 24 161 15 231 -5 42 -12 83 -15 93 -8 25 -3 25 304 -27z m-93 -495 c334 -57 749 -131 753 -135 2 -2 -3 -38 -12 -80 -18 -86 -21 -203 -7 -252 5 -18 6 -34 3 -37 -6 -3 -873 144 -938 159 -21 5 -21 6 -7 67 15 63 14 252 -2 291 -10 23 -4 23 210 -13z m102 -520 c159 -28 367 -64 463 -81 96 -16 180 -31 187 -34 8 -3 8 -15 -2 -50 -26 -84 -28 -182 -7 -262 10 -40 16 -73 14 -73 -3 0 -53 9 -111 20 -58 10 -227 40 -376 65 -302 52 -488 86 -493 90 -2 2 4 41 13 87 17 80 16 185 -1 261 -5 21 -3 27 10 27 9 0 145 -23 303 -50z m-132 -485 c110 -19 337 -58 505 -87 168 -28 308 -56 311 -61 18 -25 43 -225 43 -342 1 -152 -9 -179 -77 -219 -95 -56 -171 -68 -435 -73 -325 -7 -465 15 -574 87 -67 45 -73 67 -71 260 1 157 3 171 37 288 20 68 36 137 36 153 0 17 5 29 13 29 6 0 102 -16 212 -35z"/>
  </g>
</svg>
