<svg t="1783586736693" class="icon" viewBox="0 0 1024 1024" version="1.1" xmlns="http://www.w3.org/2000/svg" p-id="1384" width="32" height="32"><path d="M675.522107 824.112888H349.92286c-43.58984 0-78.991533-35.401693-78.991534-78.991533v-322.709314c0-116.801505 95.126999-211.928504 211.928505-211.928504h59.725305c116.801505 0 211.928504 95.126999 211.928505 211.928504v322.709314c0 43.349012-35.401693 78.991533-78.991534 78.991533z m-192.662276-599.420508c-108.854186 0-197.478833 88.624647-197.478834 197.478834v322.709313c0 35.642521 28.899341 64.541863 64.541863 64.541862h325.599247c35.642521 0 64.541863-28.899341 64.541863-64.541862v-322.709313c0-108.854186-88.624647-197.478833-197.478834-197.478834h-59.725305z" fill="#4C4C4C" p-id="1385"></path><path d="M641.565381 823.390405H383.638758c-4.094073 0-7.224835-3.130762-7.224835-7.224836v-144.978363c0-65.98683 53.70461-119.932267 119.932267-119.932267h32.752587c65.98683 0 119.932267 53.70461 119.932267 119.932267v144.978363c-0.240828 4.094073-3.37159 7.224835-7.465663 7.224836z m-250.701787-14.449671h243.717779v-137.753528c0-58.039511-47.202258-105.482596-105.482596-105.482596H496.105362c-58.039511 0-105.482596 47.202258-105.482596 105.482596v137.753528zM630.005644 354.739417c-1.685795 0-3.37159-0.481656-4.575729-1.685795-50.814675-42.385701-104.037629-55.390405-157.983066-38.773283-40.699906 12.523048-66.709313 38.0508-66.950142 38.291627-2.889934 2.889934-7.465663 2.889934-10.114769 0-2.889934-2.889934-2.889934-7.465663 0-10.114769 1.204139-1.204139 28.417686-27.93603 72.248354-41.663218 40.699906-12.763876 103.555974-15.894638 172.191909 41.181562 3.130762 2.649106 3.37159 7.224835 0.963312 10.114769-1.685795 1.685795-3.853246 2.649106-5.779869 2.649107z" fill="#4C4C4C" p-id="1386"></path><path d="M596.289746 406.276576c-1.685795 0-3.37159-0.481656-4.575729-1.685795-85.01223-70.803387-154.852305-3.37159-157.742239-0.481656-2.889934 2.889934-7.465663 2.889934-10.11477 0-2.889934-2.889934-2.889934-7.465663 0-10.114769 0.722484-0.722484 81.881468-79.714017 177.249295-0.481656 3.130762 2.649106 3.37159 7.224835 0.963311 10.114769-1.444967 1.685795-3.612418 2.649106-5.779868 2.649107zM275.266228 730.190028c-38.0508 0-69.117592-31.066792-69.117592-69.117591v-87.179681c0-38.0508 31.066792-69.117592 69.117592-69.117591 4.094073 0 7.224835 3.130762 7.224835 7.224835s-3.130762 7.224835-7.224835 7.224835c-30.103481 0-54.667921 24.56444-54.667921 54.667921v87.179681c0 30.103481 24.56444 54.667921 54.667921 54.66792 4.094073 0 7.224835 3.130762 7.224835 7.224836s-3.130762 7.224835-7.224835 7.224835zM751.623706 730.190028c-4.094073 0-7.224835-3.130762-7.224835-7.224835s3.130762-7.224835 7.224835-7.224836c30.103481 0 54.667921-24.56444 54.667921-54.66792v-87.179681c0-30.103481-24.56444-54.667921-54.667921-54.667921-4.094073 0-7.224835-3.130762-7.224835-7.224835s3.130762-7.224835 7.224835-7.224835c38.0508 0 69.117592 31.066792 69.117592 69.117591v87.179681c0 38.0508-31.066792 69.117592-69.117592 69.117591zM438.065851 230.231421c-0.722484 0-1.444967-0.240828-2.16745-0.481656-2.408278-1.204139-3.37159-4.094073-2.408279-6.502352 1.204139-2.408278 28.899341-60.447789 73.693321-63.096896 28.417686-1.685795 56.594544 19.266228 83.80809 62.61524 1.444967 2.167451 0.722484 5.298213-1.444967 6.74318-2.167451 1.444967-5.298213 0.722484-6.743179-1.444967-24.805268-39.977422-50.092192-59.484478-74.656633-58.039511-39.254939 2.408278-65.264346 57.076199-65.746001 57.557855-0.722484 1.685795-2.408278 2.649106-4.334902 2.649107zM563.777987 710.923801c-1.685795 0-3.37159-0.481656-4.575729-1.444968-1.685795-1.204139-2.889934-3.130762-3.130762-5.298212-0.722484-4.334901 2.408278-8.428975 6.743179-9.151458 2.167451-0.240828 4.094073 0.240828 6.020697 1.444967 1.685795 1.204139 2.889934 3.130762 3.130762 5.298212 0.240828 2.167451-0.240828 4.094073-1.444967 6.020697s-3.130762 2.889934-5.298213 3.130762h-1.444967z m0.240828-11.078081h-0.481656c-0.722484 0.240828-1.444967 0.481656-2.167451 1.204139-0.481656 0.722484-0.722484 1.444967-0.481655 2.408278 0.240828 0.722484 0.481656 1.444967 1.204139 2.167451 0.722484 0.481656 1.444967 0.722484 2.408278 0.481656 0.722484-0.240828 1.444967-0.481656 2.167451-1.20414s0.722484-1.444967 0.481656-2.408278c-0.240828-0.722484-0.481656-1.444967-1.20414-2.167451-0.722484-0.240828-1.444967-0.481656-1.926622-0.481655zM557.516463 716.944497c-1.685795 0-3.37159-1.204139-3.612418-3.130762-0.240828-0.963311 0-1.926623 0.722484-2.649107 0.481656-0.722484 1.444967-1.204139 2.408278-1.444967 1.926623-0.240828 3.853246 0.963311 4.094074 3.130762 0.240828 1.926623-0.963311 3.853246-3.130762 4.094074h-0.481656z m0-4.816557c-0.240828 0-0.240828 0 0 0-0.481656 0-0.722484 0.240828-0.963312 0.481655-0.240828 0.240828-0.240828 0.722484-0.240827 0.963312 0 0.722484 0.722484 1.204139 1.444967 0.963311 0.722484 0 1.204139-0.722484 0.963311-1.444967 0-0.240828-0.240828-0.722484-0.481656-0.722483-0.240828-0.240828-0.481656-0.240828-0.722483-0.240828zM578.468485 698.159925c-2.649106 0-5.298213-0.481656-7.706491-1.685795-12.523048-5.53904-16.376294-23.601129-8.669802-41.181562 0.240828-0.722484 0.722484-1.444967 1.204139-2.16745 0.240828-0.722484 0.481656-1.444967 1.204139-2.167451 3.612418-6.261524 8.669802-11.559737 14.208843-14.690499l26.250235-27.213546c1.444967-1.444967 3.612418-1.926623 5.539041-0.963312 1.926623 0.722484 2.889934 2.649106 2.889934 4.816557l-2.649106 37.569144c1.444967 6.261524 0.722484 13.486359-1.444967 20.470367 0 0.722484-0.240828 1.685795-0.722484 2.408279-0.240828 0.722484-0.722484 1.444967-0.963311 2.408278-6.74318 13.727187-18.302916 22.39699-29.14017 22.39699z m-6.261524-41.663218s-0.240828 0 0 0l-1.444967 2.889935c-5.298213 12.041392-3.612418 25.046096 3.853246 28.417685 7.465663 3.37159 18.302916-4.094073 23.601129-16.135465 0.481656-0.963311 0.722484-1.926623 1.204139-2.649107v-0.240827c1.926623-5.779868 2.408278-11.559737 1.204139-16.376294 0-0.481656-0.240828-0.963311-0.240828-1.444967l1.685795-25.046096-17.339605 18.062088c-0.240828 0.240828-0.722484 0.722484-1.204139 0.963312-4.334901 2.408278-8.428975 6.502352-11.318909 11.800564v-0.240828z" fill="#4C4C4C" p-id="1387"></path></svg>