<svg t="1783586897777" class="icon" viewBox="0 0 1024 1024" version="1.1" xmlns="http://www.w3.org/2000/svg" p-id="1756" width="32" height="32"><path d="M65.4 572.78c13.69 45.33 50.34 71.53 91.69 90.37 47.27 21.53 100.12 33.67 152.06 34.63 19 0.35 19-29.17 0-29.52-45.39-0.84-92.4-10.91-134.02-29.19-34.96-15.35-69.58-35.45-81.26-74.14-5.49-18.13-33.99-10.4-28.47 7.85zM828.72 697.71c17.66 0.25 35.36-1.46 52.6-5.43 14.96-3.44 32.08-7.94 43.95-18.19 23.93-20.68 28.94-61.81 31.68-91.28 3.42-36.86 2.18-74.34 2.13-111.32-0.05-38.69-0.55-77.37-1.87-116.03-0.64-18.94-30.17-19.03-29.52 0 2.27 66.76 3.3 133.94 1.27 200.72-0.88 28.84-2.84 61.46-16.94 87.35-6.96 12.78-20.97 15.88-34.22 19.24-16.15 4.09-32.44 5.66-49.08 5.42-19-0.27-19.01 29.25 0 29.52z" p-id="1757"></path><path d="M92.28 558.92c-3.52-21.04 37.75-40.28 54.6-44.54 47.16-11.94 123.65-9.04 167.07-12.91 74.33-6.62 121.47-39.16 187.36-76.99 49.69-28.53 134.05-71.98 145.21-71.17 2.4 0.18 7.15 1.97 13.16 5.78 27.17 17.23 82.96 39.51 116.03 47.68 34.36 8.49 72.56 1.96 100.14-19.03 10.54-8.02 19.38-17.5 27.8-27.67 7.95-9.6 18.15 0.47 31.37 8.14 16.46 9.55 29.24-13.26 14.9-25.49-13.88-11.84-29.74-17.12-49.32-11.44-10.18 2.95-17.47 7.85-24.35 15.67-19.31 21.94-45.99 37.37-76.04 34.52-35.11-3.33-90.6-22.85-118.64-44.59-22.91-17.76-40.86-15.65-68.77-4.5-28.33 11.31-87.5 43.77-114.85 59.91-27.34 16.13-138.3 78.28-183.97 80.07-100.6 3.94-260.57 0-250.13 94.43 2.05 18.82 31.55 10.75 28.43-7.87z" p-id="1758"></path><path d="M374.12 458.03c-11.44 16.2-19.48 33.82-23.84 53.19-4.19 18.59 24.84 23.98 29.01 5.47 3.2-14.21 9.01-27.74 17.43-39.66 4.59-6.5 4.67-15.36-1.8-20.8-5.71-4.8-16.18-4.75-20.8 1.8zM465.51 415.58c-13.1 16.18-23.1 34.63-29.25 54.53-2.37 7.67 0.06 15.95 7.88 19.33 6.76 2.93 16.98-0.28 19.33-7.88 5.48-17.72 13.78-33.58 25.45-48 11.99-14.8-11.45-32.75-23.41-17.98zM556.05 369.8c-18.52 23.32-29.99 50.24-40.81 77.74-6.92 17.58 19.44 30.91 26.4 13.22 9.82-24.96 19.76-50.29 36.59-71.48 11.79-14.84-10.33-34.4-22.18-19.48z" fill="#040000" p-id="1759"></path><path d="M300.67 697.68c29.92 1.44 60.3-1.62 90.11-3.82 39.37-2.91 78.69-6.42 118.01-9.94 27.03-2.41 54.2-5.72 81.34-6.7 34.06-1.22 69.01 5.18 102.73 9.13 47.98 5.63 97.17 13.39 145.61 11.24 18.92-0.84 19.02-30.36 0-29.52-42.91 1.9-86.41-4.37-128.94-9.3-38.15-4.42-77.27-11.52-115.78-11.17-24.01 0.22-48.23 3.52-72.11 5.65-39 3.48-77.99 7.01-117.03 10.04-34.34 2.66-69.45 6.52-103.94 4.87-18.99-0.91-18.95 28.61 0 29.52z" p-id="1760"></path><path d="M106.21 628.09c110.79 39.64 232.23 26.74 346.69 13.2 50.98-6.03 101.86-13.04 153.22-14.78 55.28-1.88 109.71 4.1 164.73 7.89 56.73 3.9 117.15 4.54 169.15-21.64 16.97-8.55 2.04-34.02-14.9-25.49-44.53 22.43-97.79 21.11-146.28 18.13-53.51-3.29-106.52-9.8-160.25-8.75-49.81 0.98-99.2 7.03-148.6 13.06-54.12 6.61-108.53 12.03-163.01 14.35-65.69 2.79-130.61-2.14-192.9-24.43-17.92-6.42-25.63 22.09-7.85 28.46z" p-id="1761"></path><path d="M940.04 442.89c-10.89 3.75-21.2 9.78-31.32 15.18-18.61 9.93-37.02 20.24-55.39 30.6-44.51 25.1-88.75 50.69-132.81 76.57-19.12 11.23-38.22 22.51-57.17 34.04-16.21 9.86-1.39 35.4 14.9 25.49 77.47-47.13 156.14-92.79 235.83-136.07 7.74-4.2 15.5-8.38 23.36-12.37 2.54-1.29 5.11-2.53 7.67-3.78 1.09-0.53 2.22-1.01 3.33-1.51-1.87 0.84-2.68 1.05-0.54 0.31 17.84-6.15 10.16-34.67-7.86-28.46zM80.02 564.52c49.19 0.58 98.44 0.6 147.62-0.74 20.84-0.57 40.03-3.42 56.39-17.2 15.09-12.71 24.93-30.89 29.75-49.83 4.69-18.42-23.77-26.27-28.46-7.85-3.82 15-11.52 30-24.89 38.63-15.65 10.1-38.79 6.9-56.59 7.2-41.27 0.69-82.54 0.76-123.81 0.27-19.01-0.22-19.03 29.3-0.01 29.52z" p-id="1762"></path></svg>