<?xml version="1.0" standalone="no"?><!DOCTYPE svg PUBLIC "-//W3C//DTD SVG 1.1//EN" "http://www.w3.org/Graphics/SVG/1.1/DTD/svg11.dtd"><svg t="1784103216120" class="icon" viewBox="0 0 1024 1024" version="1.1" xmlns="http://www.w3.org/2000/svg" p-id="15360" xmlns:xlink="http://www.w3.org/1999/xlink" width="32" height="32"><path d="M555.918222 752.8448c-11.764622 26.373689-22.414222 51.723378-34.133333 76.504178a241.413689 241.413689 0 0 1-247.057067 135.327289 234.564267 234.564267 0 0 1-206.483911-171.872711 243.143111 243.143111 0 0 1 135.736889-294.616178c27.124622-12.014933 54.226489-24.052622 81.624178-35.4304a117.168356 117.168356 0 0 0 40.027022-27.306667c32.995556-33.974044 66.127644-67.879822 100.534044-100.397511a176.378311 176.378311 0 0 0 43.394845-64.352711 769.524622 769.524622 0 0 1 39.344355-86.880711 235.269689 235.269689 0 0 1 186.481778-124.609422 242.232889 242.232889 0 0 1 261.370311 170.939733 244.713244 244.713244 0 0 1-136.3968 295.685689c-31.1296 13.653333-62.304711 27.056356-93.297777 40.96a50.676622 50.676622 0 0 0-15.109689 9.489066q-62.418489 61.804089-124.336356 124.1088c-1.4336 1.4336-2.616889 3.117511-4.733155 5.688889a135.486578 135.486578 0 0 0 110.432711 10.353778l17.043911 50.426311a195.811556 195.811556 0 0 1-154.441956-14.017422zM662.1184 455.111111c18.045156 17.840356 34.588444 33.541689 50.267022 50.062222a12.447289 12.447289 0 0 0 16.839111 2.548623c21.549511-9.739378 43.235556-18.932622 64.9216-28.558223A190.828089 190.828089 0 0 0 878.136889 190.577778a189.940622 189.940622 0 0 0-311.887645 2.753422 852.559644 852.559644 0 0 0-51.382044 106.609778 8.897422 8.897422 0 0 0 0.864711 7.964444c17.066667 17.908622 34.497422 35.475911 52.974933 54.294756 2.116267-4.551111 3.026489-6.326044 3.868445-8.192 16.770844-37.228089 32.244622-75.093333 50.631111-111.502222a114.733511 114.733511 0 0 1 120.991289-55.409778 117.873778 117.873778 0 0 1 94.116978 103.2192 116.918044 116.918044 0 0 1-77.164089 121.491911c-32.244622 13.949156-64.398222 28.148622-99.009422 43.303822z m-206.006044 206.2336c-2.275556 4.7104-3.072 6.166756-3.754667 7.691378-16.930133 37.614933-32.540444 75.912533-51.154489 112.685511a114.437689 114.437689 0 0 1-121.150578 54.977422 117.782756 117.782756 0 0 1-93.7984-103.424 116.781511 116.781511 0 0 1 76.322134-120.786489c32.5632-14.199467 65.1264-28.444444 100.5568-43.940977-19.114667-18.6368-36.408889-35.885511-54.294756-52.337778a14.836622 14.836622 0 0 0-12.4928 0c-23.005867 9.580089-45.966222 19.364978-68.562489 29.855289a191.146667 191.146667 0 0 0-104.015644 245.9648 192.125156 192.125156 0 0 0 318.850844 60.165689c33.3824-37.2736 46.739911-84.650667 67.1744-128.477867a10.103467 10.103467 0 0 0-2.070755-8.8064c-16.497778-17.658311-33.359644-34.793244-51.6096-53.566578z m-100.534045-180.360533l185.867378 186.117689 126.225067-125.838223-184.32-185.116444-46.603378 46.057244 140.128711 138.808889-36.795733 38.684445-141.789867-143.018667-36.181333 37.501156c-2.776178 2.776178-5.347556 5.597867-6.530845 6.803911z m368.184889-242.505956a60.893867 60.893867 0 0 0-55.296 31.857778c-19.410489 41.597156-37.569422 83.785956-55.7056 125.952a13.653333 13.653333 0 0 0 3.345067 11.6736 13.653333 13.653333 0 0 0 11.628089 3.527111c42.1888-18.204444 84.514133-35.953778 125.929244-55.728355a60.802844 60.802844 0 0 0 29.377422-71.725512 64.466489 64.466489 0 0 0-59.278222-45.556622zM302.466844 785.316978a62.714311 62.714311 0 0 0 56.888889-37.205334q26.737778-59.164444 52.064711-119.148088a14.654578 14.654578 0 0 0-2.776177-12.9024 14.381511 14.381511 0 0 0-12.720356-3.345067c-40.96 17.567289-82.079289 35.066311-122.424889 54.135467a60.893867 60.893867 0 0 0-31.857778 72.817777 63.852089 63.852089 0 0 0 60.8256 45.647645z" fill="#ffffff" fill-opacity="0.6" p-id="15361"></path></svg>
