<svg width="200" height="200" viewBox="0 0 200 200" fill="none" xmlns="http://www.w3.org/2000/svg">
<g clip-path="url(#clip0_43_7)">
<rect width="200" height="200" rx="44" fill="#1A1A1A"/>
<rect opacity="0.02" width="200" height="200" fill="white"/>
<g filter="url(#filter0_d_43_7)">
<path d="M113.331 67.1693L66.6641 113.836M118.331 90.5026H89.9974M102.231 103.834C103.108 103.834 103.976 103.661 104.786 103.325C105.596 102.988 106.332 102.496 106.951 101.874L127.464 81.3011C131.217 77.5483 133.325 72.4584 133.325 67.1511C133.325 61.8439 131.217 56.7539 127.464 53.0011C123.711 49.2483 118.621 47.14 113.314 47.14C108.007 47.14 102.917 49.2483 99.1641 53.0011L78.6174 73.5478C77.3671 74.7978 76.6644 76.4932 76.6641 78.2611V100.501C76.6641 101.385 77.0153 102.233 77.6404 102.858C78.2655 103.483 79.1133 103.834 79.9974 103.834H102.231Z" stroke="#C8FF1F" stroke-opacity="0.93" stroke-width="2" stroke-linecap="round"/>
</g>
<path d="M83.134 141.244H89.668V142.882H83.134V141.244ZM88.534 141.244H90.208V154.744C90.208 155.26 90.142 155.656 90.01 155.932C89.878 156.208 89.644 156.412 89.308 156.544C88.972 156.688 88.528 156.778 87.976 156.814C87.424 156.85 86.752 156.868 85.96 156.868C85.948 156.7 85.906 156.508 85.834 156.292C85.774 156.088 85.702 155.878 85.618 155.662C85.534 155.458 85.45 155.284 85.366 155.14C85.75 155.152 86.128 155.164 86.5 155.176C86.872 155.188 87.196 155.194 87.472 155.194C87.76 155.182 87.958 155.176 88.066 155.176C88.246 155.164 88.366 155.128 88.426 155.068C88.498 155.008 88.534 154.894 88.534 154.726V141.244ZM82.522 152.26C83.05 152.008 83.662 151.708 84.358 151.36C85.054 151 85.792 150.61 86.572 150.19C87.364 149.77 88.15 149.35 88.93 148.93L89.362 150.334C88.666 150.742 87.952 151.156 87.22 151.576C86.488 151.984 85.78 152.38 85.096 152.764C84.412 153.136 83.77 153.478 83.17 153.79L82.522 152.26ZM91.18 141.244H97.57V142.882H91.18V141.244ZM96.742 141.244H98.47V154.726C98.47 155.254 98.398 155.656 98.254 155.932C98.122 156.22 97.882 156.436 97.534 156.58C97.174 156.724 96.694 156.814 96.094 156.85C95.506 156.886 94.798 156.904 93.97 156.904C93.946 156.736 93.898 156.544 93.826 156.328C93.766 156.112 93.694 155.896 93.61 155.68C93.526 155.476 93.442 155.296 93.358 155.14C93.766 155.152 94.168 155.164 94.564 155.176C94.96 155.188 95.308 155.194 95.608 155.194C95.92 155.182 96.136 155.176 96.256 155.176C96.436 155.164 96.562 155.128 96.634 155.068C96.706 154.996 96.742 154.876 96.742 154.708V141.244ZM91.288 145.132L92.638 144.304C92.962 144.628 93.292 144.976 93.628 145.348C93.964 145.72 94.276 146.086 94.564 146.446C94.864 146.806 95.104 147.118 95.284 147.382L93.916 148.39C93.724 148.102 93.484 147.772 93.196 147.4C92.908 147.016 92.596 146.626 92.26 146.23C91.924 145.834 91.6 145.468 91.288 145.132ZM83.278 145.24L84.628 144.448C84.94 144.772 85.258 145.126 85.582 145.51C85.906 145.882 86.206 146.248 86.482 146.608C86.77 146.968 87.004 147.292 87.184 147.58L85.78 148.498C85.612 148.21 85.384 147.88 85.096 147.508C84.82 147.124 84.52 146.734 84.196 146.338C83.884 145.93 83.578 145.564 83.278 145.24ZM90.712 151.882C91.252 151.63 91.882 151.324 92.602 150.964C93.322 150.592 94.084 150.196 94.888 149.776C95.692 149.344 96.49 148.918 97.282 148.498L97.714 149.884C97.018 150.304 96.31 150.724 95.59 151.144C94.87 151.564 94.168 151.972 93.484 152.368C92.8 152.752 92.164 153.106 91.576 153.43L90.712 151.882ZM100.882 144.16H108.82V145.78H100.882V144.16ZM104.122 140.308H105.796V157.012H104.122V140.308ZM104.05 145.186L105.184 145.618C104.992 146.362 104.758 147.13 104.482 147.922C104.206 148.702 103.894 149.47 103.546 150.226C103.21 150.97 102.85 151.666 102.466 152.314C102.082 152.962 101.686 153.514 101.278 153.97C101.182 153.73 101.038 153.454 100.846 153.142C100.666 152.818 100.504 152.548 100.36 152.332C100.744 151.924 101.116 151.444 101.476 150.892C101.848 150.328 102.196 149.728 102.52 149.092C102.844 148.456 103.138 147.808 103.402 147.148C103.666 146.476 103.882 145.822 104.05 145.186ZM105.688 146.284C105.796 146.392 105.952 146.56 106.156 146.788C106.372 147.016 106.606 147.274 106.858 147.562C107.122 147.85 107.374 148.138 107.614 148.426C107.854 148.702 108.07 148.954 108.262 149.182C108.466 149.41 108.61 149.578 108.694 149.686L107.614 151.144C107.47 150.88 107.278 150.568 107.038 150.208C106.798 149.848 106.534 149.476 106.246 149.092C105.97 148.696 105.7 148.33 105.436 147.994C105.184 147.658 104.968 147.376 104.788 147.148L105.688 146.284ZM109.558 140.488H111.25V153.826C111.25 154.33 111.304 154.654 111.412 154.798C111.532 154.93 111.79 154.996 112.186 154.996C112.282 154.996 112.444 154.996 112.672 154.996C112.912 154.996 113.17 154.996 113.446 154.996C113.722 154.996 113.98 154.996 114.22 154.996C114.472 154.996 114.652 154.996 114.76 154.996C115.036 154.996 115.24 154.906 115.372 154.726C115.504 154.534 115.6 154.198 115.66 153.718C115.732 153.226 115.786 152.536 115.822 151.648C116.014 151.804 116.26 151.96 116.56 152.116C116.86 152.26 117.124 152.356 117.352 152.404C117.28 153.424 117.166 154.234 117.01 154.834C116.866 155.434 116.626 155.866 116.29 156.13C115.966 156.394 115.492 156.526 114.868 156.526C114.796 156.526 114.658 156.526 114.454 156.526C114.262 156.526 114.04 156.526 113.788 156.526C113.548 156.526 113.302 156.526 113.05 156.526C112.81 156.526 112.594 156.526 112.402 156.526C112.21 156.526 112.072 156.526 111.988 156.526C111.352 156.526 110.854 156.448 110.494 156.292C110.146 156.136 109.9 155.86 109.756 155.464C109.624 155.056 109.558 154.498 109.558 153.79V140.488Z" fill="#C8FF1F" fill-opacity="0.93"/>
</g>
<defs>
<filter id="filter0_d_43_7" x="56" y="36.5" width="88" height="88" filterUnits="userSpaceOnUse" color-interpolation-filters="sRGB">
<feFlood flood-opacity="0" result="BackgroundImageFix"/>
<feColorMatrix in="SourceAlpha" type="matrix" values="0 0 0 0 0 0 0 0 0 0 0 0 0 0 0 0 0 0 127 0" result="hardAlpha"/>
<feOffset/>
<feGaussianBlur stdDeviation="2"/>
<feComposite in2="hardAlpha" operator="out"/>
<feColorMatrix type="matrix" values="0 0 0 0 1 0 0 0 0 0.819608 0 0 0 0 0.4 0 0 0 1 0"/>
<feBlend mode="normal" in2="BackgroundImageFix" result="effect1_dropShadow_43_7"/>
<feBlend mode="normal" in="SourceGraphic" in2="effect1_dropShadow_43_7" result="shape"/>
</filter>
<clipPath id="clip0_43_7">
<rect width="200" height="200" rx="44" fill="white"/>
</clipPath>
</defs>
</svg>
