<?xml version="1.0" encoding="UTF-8"?>
<svg xmlns="http://www.w3.org/2000/svg" xmlns:xlink="http://www.w3.org/1999/xlink" width="200pt" height="200pt" viewBox="0 0 200 200" version="1.1">
<g id="surface1">
<rect x="0" y="0" width="200" height="200" style="fill:rgb(100%,100%,100%);fill-opacity:1;stroke:none;"/>
<path style=" stroke:none;fill-rule:nonzero;fill:rgb(0.799561%,0.799561%,0.799561%);fill-opacity:1;" d="M 79.164063 121.351563 C 79.164063 127.515625 76.617188 133.890625 76.617188 133.890625 C 90.214844 118.164063 139.726563 121.351563 139.726563 121.351563 C 88.515625 115.402344 91.488281 101.59375 91.488281 101.59375 C 93.613281 77.582031 178.609375 65.46875 178.609375 65.46875 C 142.273438 71.203125 131.4375 70.355469 123.363281 70.355469 C 115.289063 70.355469 111.976563 62.578125 111.976563 62.578125 C 111.976563 62.578125 101.453125 83.296875 76.59375 92.222656 C 51.726563 101.148438 20.851563 102.929688 20.851563 102.929688 C 71.757813 102.140625 79.164063 115.191406 79.164063 121.351563 Z M 11.648438 129.105469 C 25.347656 126.847656 37.191406 130.835938 37.191406 130.835938 C 37.988281 118.996094 44.570313 107.710938 44.570313 107.710938 L 34.84375 106.273438 C 27.128906 121.441406 11.648438 129.105469 11.648438 129.105469 Z M 39.183594 97.046875 L 49.164063 95.050781 C 53.550781 86.800781 63.53125 72.832031 63.53125 72.832031 C 52.488281 75.761719 36.789063 76.027344 36.789063 76.027344 C 43.574219 86.136719 39.183594 97.046875 39.183594 97.046875 Z M 78.421875 63.449219 C 78.421875 63.449219 78.636719 65.257813 69.816406 74.285156 C 61 83.316406 56.109375 93.515625 56.109375 93.515625 C 56.109375 93.515625 84.597656 90.496094 111.367188 61.175781 C 111.367188 61.175781 112.261719 59.890625 113.480469 60.796875 C 114.703125 61.695313 118.050781 67.0625 135.476563 65.785156 C 152.898438 64.511719 195.394531 62.8125 195.394531 62.8125 C 195.394531 62.8125 131.417969 78.195313 114.84375 86.804688 C 98.269531 95.410156 78.1875 108.796875 165.523438 123.144531 C 165.523438 123.144531 125.679688 125.375 112.929688 126.96875 C 100.179688 128.5625 84.878906 130.15625 74.996094 137.167969 C 74.996094 137.167969 74.144531 137.597656 74.53125 136.476563 C 74.914063 135.355469 80.851563 113.234375 48.980469 108.453125 C 48.980469 108.453125 40.933594 126.355469 42.683594 136.714844 C 42.683594 136.714844 42.722656 137.078125 41.875 137.503906 C 41.023438 137.925781 40.625 138.085938 39.5625 137.714844 C 38.5 137.34375 29.089844 130.628906 6 131.195313 C 6 131.195313 23.085938 119.660156 31.53125 105.957031 C 31.53125 105.957031 26.113281 105.316406 20.535156 104.839844 C 20.535156 104.839844 17.203125 104.746094 17.203125 102.914063 C 17.203125 101.089844 21.722656 101.023438 34.96875 97.980469 C 34.96875 97.980469 41.769531 83.53125 33.800781 74.816406 C 33.800781 74.816406 33.324219 74.339844 34.011719 74.339844 C 34.011719 74.339844 52.488281 74.328125 78.421875 63.449219 "/>
</g>
</svg>
